<svg width="40" height="40" viewBox="0 0 40 40" fill="none" xmlns="http://www.w3.org/2000/svg">
<g>
<path fill-rule="evenodd" clip-rule="evenodd" d="M19.9361 0.606445C23.5419 0.647591 26.7993 1.53377 29.7084 3.26498C32.5828 4.96164 34.9739 7.36735 36.653 10.2521C38.3737 13.1787 39.2545 16.4559 39.2955 20.0835C39.1933 25.0471 37.6278 29.2864 34.5989 32.8016C31.57 36.3167 27.6907 38.4914 23.6749 39.3251V25.4089H27.4715L28.3301 19.9401H22.5811V16.3582C22.5492 15.6157 22.7841 14.8862 23.2432 14.3017C23.7029 13.7157 24.5126 13.4076 25.672 13.3776H29.1436V8.58712C29.0938 8.5711 28.6212 8.50772 27.7257 8.397C26.7101 8.27817 25.6888 8.2147 24.6663 8.20688C22.3521 8.21755 20.5219 8.87035 19.1756 10.1653C17.8293 11.4598 17.1416 13.3328 17.1124 15.7841V19.9401H12.7374V25.4089H17.1124V39.3251C12.1816 38.4914 8.30227 36.3167 5.27337 32.8016C2.24446 29.2864 0.678993 25.0471 0.57679 20.0835C0.61768 16.4557 1.4985 13.1785 3.21926 10.2521C4.89838 7.36735 7.28949 4.96164 10.1639 3.26498C13.073 1.5341 16.3304 0.647924 19.9361 0.606445Z" fill="#FAFAFA"/>
</g>
<defs>

<rect width="40" height="40" fill="white"/>

</defs>
</svg>
