<svg width="40" height="40" viewBox="0 0 40 40" fill="none" xmlns="http://www.w3.org/2000/svg">
<g>
<path d="M20 24.1016C22.2652 24.1016 24.1016 22.2652 24.1016 20C24.1016 17.7348 22.2652 15.8984 20 15.8984C17.7348 15.8984 15.8984 17.7348 15.8984 20C15.8984 22.2652 17.7348 24.1016 20 24.1016Z" fill="#FAFAFA"/>
<path d="M20 0.46875C9.2132 0.46875 0.46875 9.2132 0.46875 20C0.46875 30.7868 9.2132 39.5312 20 39.5312C30.7868 39.5312 39.5312 30.7868 39.5312 20C39.5312 9.2132 30.7868 0.46875 20 0.46875ZM32.067 24.9641C31.9733 26.8209 31.4515 28.652 30.0983 29.9909C28.732 31.3424 26.8922 31.846 25.0174 31.9388H14.9827C13.1077 31.846 11.2681 31.3427 9.9018 29.9909C8.54852 28.652 8.0268 26.8209 7.93305 24.9641V15.0359C8.0268 13.1791 8.54859 11.348 9.9018 10.0091C11.2681 8.6575 13.1079 8.15391 14.9827 8.06117H25.0173C26.8923 8.15391 28.7319 8.65727 30.0982 10.0091C31.4515 11.348 31.9732 13.1791 32.067 15.0359L32.067 24.9641Z" fill="#FAFAFA"/>
<path d="M24.8906 10.3237C22.4464 10.2567 17.5542 10.2567 15.11 10.3237C13.838 10.3586 12.3961 10.6753 11.4898 11.6432C10.5481 12.6494 10.1923 13.865 10.1562 15.225C10.0927 17.6118 10.1562 24.7759 10.1562 24.7759C10.1975 26.1357 10.5481 27.3514 11.4898 28.3576C12.3961 29.3259 13.838 29.6422 15.11 29.6771C17.5542 29.7442 22.4464 29.7442 24.8906 29.6771C26.1626 29.6422 27.6045 29.3256 28.5108 28.3576C29.4525 27.3514 29.8084 26.1358 29.8445 24.7759V15.225C29.8084 13.865 29.4525 12.6494 28.5108 11.6432C27.6042 10.675 26.1623 10.3586 24.8906 10.3237ZM20 26.3579C18.7426 26.3579 17.5135 25.985 16.468 25.2864C15.4225 24.5879 14.6077 23.595 14.1265 22.4333C13.6453 21.2716 13.5194 19.9934 13.7647 18.7602C14.01 17.5269 14.6155 16.3942 15.5046 15.5051C16.3937 14.616 17.5265 14.0105 18.7597 13.7652C19.9929 13.5199 21.2712 13.6458 22.4329 14.1269C23.5945 14.6081 24.5874 15.423 25.286 16.4684C25.9846 17.5139 26.3574 18.7431 26.3574 20.0004C26.3574 21.6865 25.6876 23.3036 24.4954 24.4958C23.3031 25.6881 21.6861 26.3579 20 26.3579ZM26.3845 14.9553C26.133 14.9552 25.8872 14.8806 25.6781 14.7408C25.4691 14.6011 25.3062 14.4025 25.21 14.1701C25.1138 13.9378 25.0887 13.6822 25.1377 13.4355C25.1868 13.1889 25.308 12.9624 25.4858 12.7846C25.6636 12.6068 25.8902 12.4857 26.1368 12.4367C26.3835 12.3877 26.6391 12.4129 26.8714 12.5091C27.1037 12.6054 27.3023 12.7683 27.442 12.9774C27.5817 13.1865 27.6562 13.4323 27.6562 13.6838C27.6562 13.8508 27.6233 14.0162 27.5594 14.1704C27.4955 14.3247 27.4018 14.4649 27.2837 14.583C27.1656 14.701 27.0254 14.7947 26.8711 14.8586C26.7168 14.9225 26.5515 14.9553 26.3845 14.9553Z" fill="#FAFAFA"/>
</g>
<defs>

<rect width="40" height="40" fill="white"/>

</defs>
</svg>
