<svg width="40" height="40" viewBox="0 0 40 40" fill="none" xmlns="http://www.w3.org/2000/svg">
<g >
<path class="circle" d="M20 0C8.95469 0 0 8.95469 0 20C0 31.0453 8.95469 40 20 40C31.0453 40 40 31.0453 40 20C40 8.95469 31.0453 0 20 0Z" fill="#FAFAFA"/>
<path class="tweet" d="M22.1873 18.1901L30.7491 8.23773H28.7202L21.286 16.8792L15.3484 8.23773H8.5L17.4789 21.3052L8.5 31.7418H10.529L18.3797 22.6161L24.6503 31.7418H31.4986L22.1868 18.1901H22.1873ZM11.26 9.76513H14.3764L28.7211 30.2838H25.6047L11.26 9.76513Z" fill="black"/>
</g>
<defs>

<rect width="40" height="40" fill="white"/>

</defs>
</svg>

