<svg width="40" height="40" viewBox="0 0 40 40" fill="none" xmlns="http://www.w3.org/2000/svg">
<path d="M39.3088 10.5445C38.8191 8.41718 37.0791 6.84773 34.9845 6.61361C30.0243 6.05991 25.0038 6.05702 20.0064 6.05991C15.0082 6.05702 9.98689 6.05991 5.02668 6.61361C2.93326 6.84773 1.19453 8.41718 0.704826 10.5445C0.00784518 13.5739 0 16.8809 0 19.9999C0 23.119 0 26.4255 0.696981 29.4546C1.18586 31.5815 2.92501 33.1509 5.01966 33.3854C9.97946 33.9396 15.0004 33.9424 19.9986 33.9396C24.9976 33.9424 30.0172 33.9396 34.9766 33.3854C37.07 33.1513 38.8104 31.5819 39.3001 29.4546C39.9975 26.4251 40 23.1186 40 19.9999C40 16.8809 40.0058 13.5739 39.3088 10.5445ZM14.8381 26.2084C14.8381 21.7837 14.8381 17.4053 14.8381 12.9802C19.0774 15.1921 23.2886 17.3892 27.5547 19.6147C23.3018 21.8204 19.0885 24.0043 14.8381 26.2084Z" fill="#FAFAFA"/>
</svg>
