<svg width="40" height="41" viewBox="0 0 40 41" fill="none" xmlns="http://www.w3.org/2000/svg">
<g clip-path="url(#clip0_199_456)">
<rect y="0.951172" width="40" height="40" rx="20" fill="#ED8B00"/>
<path d="M19.9999 0.951172C8.95422 0.951172 0 9.9054 0 20.951C0 31.9967 8.95422 40.9513 19.9999 40.9513C31.0455 40.9513 40.0001 31.9967 40.0001 20.951C39.9877 9.91052 31.0408 0.963623 19.9999 0.951172ZM19.9999 38.951C10.0587 38.951 1.99988 30.8922 1.99988 20.951C1.99988 11.0099 10.0587 2.95105 19.9999 2.95105C29.941 2.95105 37.9999 11.0099 37.9999 20.951C37.9885 30.8875 29.9363 38.9397 19.9999 38.951Z" fill="#ED8B00"/>
<path d="M17.6583 13.1984C17.2423 12.8348 16.6106 12.8773 16.2469 13.2929C15.8837 13.7089 15.9261 14.3406 16.3418 14.7043L23.4814 20.9511L16.3414 27.1983C15.9254 27.5619 15.8833 28.1937 16.2466 28.6093C16.6102 29.0253 17.2419 29.0678 17.658 28.7042L25.6578 21.704C25.875 21.5143 25.9995 21.2397 25.9995 20.9511C25.9995 20.6625 25.875 20.3882 25.6578 20.1982L17.6583 13.1984Z" fill="#FAFAFA"/>
</g>
<defs>
<clipPath id="clip0_199_456">
<rect y="0.951172" width="40" height="40" rx="20" fill="white"/>
</clipPath>
</defs>
</svg>
