<svg class="less" width="60" height="60" viewBox="0 0 60 60" fill="none" xmlns="http://www.w3.org/2000/svg">
<g>
<path d="M30 60C13.4575 60 0 46.5425 0 30C0 13.4575 13.4575 0 30 0C46.5425 0 60 13.4575 60 30C60 46.5425 46.5425 60 30 60ZM30 2.5C14.8375 2.5 2.5 14.8375 2.5 30C2.5 45.1625 14.8375 57.5 30 57.5C45.1625 57.5 57.5 45.1625 57.5 30C57.5 14.8375 45.1625 2.5 30 2.5Z" fill="#ED8B00"/>
<path d="M43.75 31.25H16.25C15.56 31.25 15 30.69 15 30C15 29.31 15.56 28.75 16.25 28.75H43.75C44.44 28.75 45 29.31 45 30C45 30.69 44.44 31.25 43.75 31.25Z" fill="#ED8B00"/>
</g>
<defs>

<rect width="60" height="60" fill="white"/>

</defs>
</svg>
