<svg class="more" width="60" height="60" viewBox="0 0 60 60" fill="none" xmlns="http://www.w3.org/2000/svg">
<g>
<path d="M48.9844 30C48.9844 30.6472 48.4597 31.1719 47.8125 31.1719H31.1719V47.8125C31.1719 48.4597 30.6472 48.9844 30 48.9844C29.3528 48.9844 28.8281 48.4597 28.8281 47.8125V31.1719H12.1875C11.5403 31.1719 11.0156 30.6472 11.0156 30C11.0156 29.3528 11.5403 28.8281 12.1875 28.8281H28.8281V12.1875C28.8281 11.5403 29.3528 11.0156 30 11.0156C30.6472 11.0156 31.1719 11.5403 31.1719 12.1875V28.8281H47.8125C48.4597 28.8281 48.9844 29.3528 48.9844 30ZM60 30C60 46.5421 46.5421 60 30 60C13.4579 60 0 46.5421 0 30C0 13.4579 13.4579 0 30 0C46.5421 0 60 13.4579 60 30ZM57.6562 30C57.6562 14.7503 45.2496 2.34375 30 2.34375C14.7504 2.34375 2.34375 14.7503 2.34375 30C2.34375 45.2497 14.7504 57.6562 30 57.6562C45.2496 57.6562 57.6562 45.2497 57.6562 30Z" fill="#ED8B00"/>
</g>
<defs>

<rect width="60" height="60" fill="white"/>

</defs>
</svg>
