<svg width="65" height="65" viewBox="0 0 65 65" fill="none" xmlns="http://www.w3.org/2000/svg">
<g>
<path class="circle" d="M32.4998 0C14.5506 0 0 14.5506 0 32.4998C0 50.449 14.5506 65.0002 32.4998 65.0002C50.449 65.0002 65.0002 50.449 65.0002 32.4998C64.98 14.5589 50.4413 0.0202331 32.4998 0ZM32.4998 61.7498C16.3454 61.7498 3.2498 48.6542 3.2498 32.4998C3.2498 16.3454 16.3454 3.2498 32.4998 3.2498C48.6542 3.2498 61.7498 16.3454 61.7498 32.4998C61.7314 48.6465 48.6465 61.7314 32.4998 61.7498Z" fill="#ED8B00"/>
<path class="arrow" d="M28.6948 19.9017C28.0187 19.3107 26.9922 19.3798 26.4013 20.0552C25.811 20.7312 25.88 21.7578 26.5554 22.3487L38.1573 32.4998L26.5548 42.6515C25.8788 43.2424 25.8104 44.2689 26.4007 44.9443C26.9916 45.6204 28.0182 45.6894 28.6942 45.0985L41.694 33.7233C42.0469 33.415 42.2492 32.9687 42.2492 32.4998C42.2492 32.0308 42.0469 31.5851 41.694 31.2763L28.6948 19.9017Z" fill="black"/>
</g>
<defs>

<rect width="65" height="65" fill="white"/>

</defs>
</svg>
