<svg width="40" height="41" viewBox="0 0 40 41" fill="none" xmlns="http://www.w3.org/2000/svg">
<g clip-path="url(#clip0_199_430)">
<path d="M19.9999 0.280273C8.95422 0.280273 0 9.2345 0 20.2802C0 31.3258 8.95422 40.2804 19.9999 40.2804C31.0455 40.2804 40.0001 31.3258 40.0001 20.2802C39.9877 9.23962 31.0408 0.292725 19.9999 0.280273ZM19.9999 38.2802C10.0587 38.2802 1.99988 30.2213 1.99988 20.2802C1.99988 10.339 10.0587 2.28015 19.9999 2.28015C29.941 2.28015 37.9999 10.339 37.9999 20.2802C37.9885 30.2166 29.9363 38.2688 19.9999 38.2802Z" fill="#ED8B00"/>
<path d="M17.6583 12.5275C17.2423 12.1639 16.6106 12.2064 16.2469 12.622C15.8837 13.038 15.9261 13.6697 16.3418 14.0334L23.4814 20.2802L16.3414 26.5274C15.9254 26.891 15.8833 27.5228 16.2466 27.9384C16.6102 28.3544 17.2419 28.3969 17.658 28.0333L25.6578 21.0331C25.875 20.8434 25.9995 20.5688 25.9995 20.2802C25.9995 19.9916 25.875 19.7173 25.6578 19.5273L17.6583 12.5275Z" fill="#FAFAFA"/>
</g>
<defs>
<clipPath id="clip0_199_430">
<rect width="40" height="40" fill="white" transform="translate(0 0.280273)"/>
</clipPath>
</defs>
</svg>
