<?xml version="1.0" encoding="UTF-8"?>
<svg id="Layer_2" xmlns="http://www.w3.org/2000/svg" viewBox="0 0 432 100.85">
  <defs>
    <style>
      .cls-1 {
        fill-rule: evenodd;
      }

      .cls-1, .cls-2 {
        fill: #fff;
      }

      .cls-3 {
        fill: #ed8b00;
      }
    </style>
  </defs>
  <g id="Layer_1-2" data-name="Layer_1">
    <g>
      <g>
        <path class="cls-1" d="M210.41,52.05c-.18-1.08-.28-2.17-.28-3.26s.08-2.19.26-3.27c1.54-9.54,9.8-16.57,19.46-16.61,5.27-.02,10.28,2.03,14.02,5.74l1.51,1.5c.26.26.68.25.93,0l8.23-8.31c.26-.26.25-.68,0-.93l-1.51-1.5c-6.2-6.15-14.51-9.55-23.24-9.51-16.53.07-30.48,12.46-32.44,28.88-.16,1.35-.24,2.71-.23,4.06,0,1.36.1,2.72.27,4.06,2.1,16.4,16.15,28.68,32.68,28.61,8.73-.04,17.01-3.51,23.16-9.71l1.5-1.51c.26-.26.25-.68,0-.93l-8.3-8.24c-.26-.26-.68-.25-.93,0l-1.5,1.51c-3.71,3.74-8.7,5.83-13.97,5.85-9.66.04-17.97-6.92-19.59-16.45h0Z"/>
        <path class="cls-1" d="M352.66,33.53c-.11-.48-.1-.99,0-1.47.34-1.62,1.62-2.66,3.27-2.66l32.81-.14c.36,0,.66-.3.66-.66l-.05-11.75c0-.36-.3-.66-.66-.66l-32.81.14c-6.02.03-11.66,3.78-14.5,9-.69,1.26-1.21,2.62-1.51,4.03-.34,1.63-.51,3.31-.41,4.98.25,3.93,1.95,7.09,4.67,9.87,1.46,1.49,3.2,2.69,5.1,3.54l28.09,12.56c.97.43,1.69,1.24,1.92,2.29.11.49.1.99,0,1.47-.34,1.62-1.62,2.66-3.27,2.66l-32.89.14c-.36,0-.66.3-.66.66l.05,11.75c0,.36.3.66.66.66l32.89-.14c6.02-.03,11.66-3.78,14.5-9,.69-1.26,1.21-2.62,1.51-4.03.34-1.63.51-3.31.41-4.98-.25-3.93-1.95-7.09-4.67-9.87-1.46-1.49-3.2-2.69-5.1-3.54l-28.09-12.56c-.97-.43-1.69-1.24-1.92-2.29h0Z"/>
        <path class="cls-1" d="M78.3,80.63c0,.36.3.66.66.66l11.7-.05c.36,0,.66-.3.66-.66l-.12-29.65c0-.21,0-.43,0-.64,0-1.09.08-2.19.26-3.27,1.54-9.54,9.8-16.57,19.45-16.61h2.13c.36-.01.66-.31.66-.67l-.05-11.7c0-.36-.3-.66-.66-.66h-2.13c-16.53.08-30.48,12.47-32.44,28.89-.16,1.35-.24,2.71-.23,4.06,0,.21,0,.42,0,.62l.12,29.68h0Z"/>
        <path class="cls-1" d="M28.61,18.04C12.2,20.14-.07,34.19,0,50.72l.21,49.47c0,.36.3.66.66.66l11.7-.05c.36,0,.66-.3.66-.66l-.21-49.47c-.04-9.66,6.92-17.97,16.44-19.59,1.08-.18,2.17-.28,3.26-.28s2.19.08,3.27.26l.26.04c9.42,1.64,16.31,9.86,16.35,19.41.04,9.66-6.92,17.97-16.44,19.59-1.08.18-2.17.28-3.27.28s-2.19-.08-3.27-.26l-.27-.04c-3.06-.54-5.95-1.79-8.43-3.66-.21-.16-.46-.18-.69-.06-.24.12-.36.33-.36.59l.06,13.39c0,.28.15.5.41.61,2.74,1.12,5.62,1.87,8.55,2.22,1.35.16,2.71.24,4.06.23,1.36,0,2.72-.1,4.06-.27,16.41-2.1,28.68-16.15,28.61-32.68-.07-16.53-12.46-30.48-28.88-32.44-1.35-.16-2.71-.24-4.06-.23-1.36,0-2.72.1-4.06.27h0Z"/>
        <path class="cls-1" d="M290.5,15.86c-16.41,2.1-28.68,16.15-28.61,32.68.07,16.53,12.46,30.48,28.88,32.44,1.35.16,2.71.24,4.06.23,1.36,0,2.72-.1,4.06-.27,2.93-.38,5.81-1.14,8.53-2.29.26-.11.4-.33.4-.61l-.06-13.39c0-.26-.13-.47-.37-.59-.24-.12-.48-.09-.69.07-2.54,1.95-5.51,3.24-8.67,3.78-1.08.18-2.17.28-3.26.28-1.09,0-2.19-.08-3.27-.26l-.27-.04c-9.41-1.65-16.29-9.86-16.33-19.41-.04-9.66,6.92-17.97,16.44-19.59,1.08-.18,2.17-.28,3.26-.28s2.19.08,3.27.26l.26.04c9.42,1.64,16.31,9.86,16.35,19.41l.13,31.12c0,.36.3.66.66.66l11.7-.05c.36,0,.66-.3.66-.66l-.13-31.12c-.07-16.53-12.46-30.48-28.88-32.44-1.35-.16-2.71-.24-4.06-.23-1.36,0-2.72.1-4.06.27h0Z"/>
        <path class="cls-1" d="M431.95,69.09c0-.36-.3-.66-.66-.66l-12.9.05c-.42,0-.77-.34-.77-.76V30.1c0-.42.34-.77.77-.77l12.91-.05c.36,0,.66-.3.66-.66v-11.75c0-.36-.3-.66-.66-.66l-12.9.05c-.42,0-.77-.34-.77-.77V.66c0-.36-.3-.66-.66-.66l-11.7.05c-.36,0-.66.3-.66.66v70.62c.02,5.63,4.64,10.21,10.27,10.19l16.47-.06c.36,0,.66-.3.66-.66l-.05-11.7Z"/>
      </g>
      <path class="cls-2" d="M158.81,16.16c-1.35-.17-2.72-.26-4.08-.27-.05,0-.09,0-.14,0s-.09,0-.14,0c-1.36,0-2.73.09-4.08.27-16.47,2.1-28.79,16.21-28.72,32.81.06,14.27,9.28,26.6,22.34,31.03,0,0,1.45.51,2.66.9v-1.32h0s0-.43,0-.43c-.03-6.38-2.66-12.35-6.9-17.11-3.13-3.52-5.01-8.13-5.03-13.12-.04-9.7,6.95-18.04,16.51-19.67,1.08-.18,2.18-.28,3.28-.28.03,0,.06,0,.08,0s.06,0,.08,0c1.1,0,2.2.1,3.28.28,9.56,1.63,16.55,9.97,16.51,19.67-.02,4.98-1.9,9.6-5.03,13.12-4.24,4.76-6.87,10.73-6.9,17.11v.44s0,0,0,0v1.32c1.21-.39,2.66-.9,2.66-.9,13.07-4.43,22.28-16.76,22.34-31.03.07-16.6-12.25-30.7-28.72-32.81"/>
      <path class="cls-3" d="M166.32,58.81c2.31-2.71,3.69-6.22,3.69-10-4.68,2.1-9.73,2.54-15.41,0-5.42-2.22-10.55-2.13-15.41,0,0,3.76,1.37,7.26,3.67,9.97.05.06.1.13.15.19,5.1,5.82,7.89,12.96,7.86,20.1v1.63s0,8.18,0,8.18h7.48v-9.81c-.04-7.14,2.75-14.28,7.85-20.1.05-.05.09-.11.13-.17"/>
    </g>
  </g>
</svg>